<?xml version="1.0" encoding="UTF-8"?>
<svg version="1.1" xmlns="http://www.w3.org/2000/svg" width="500" height="500">
<path d="M0 0 C5.53748156 3.40211286 9.44454175 8.27763634 11.4375 14.4375 C11.60277522 17.18942123 11.67115572 19.83413188 11.6328125 22.58203125 C11.6299826 23.35181808 11.62715271 24.12160492 11.62423706 24.91471863 C11.61309157 27.35997425 11.58799781 29.80485612 11.5625 32.25 C11.5524629 33.91340615 11.54333833 35.57681807 11.53515625 37.24023438 C11.51317073 41.30613237 11.47868014 45.37175294 11.4375 49.4375 C6.9825 49.9325 6.9825 49.9325 2.4375 50.4375 C2.4375 51.0975 2.4375 51.7575 2.4375 52.4375 C5.4075 52.7675 8.3775 53.0975 11.4375 53.4375 C11.4375 55.0875 11.4375 56.7375 11.4375 58.4375 C6.4875 58.9325 6.4875 58.9325 1.4375 59.4375 C1.4375 60.4275 1.4375 61.4175 1.4375 62.4375 C4.7375 62.4375 8.0375 62.4375 11.4375 62.4375 C11.93357675 68.39042102 10.9112916 72.52030469 7.4375 77.4375 C2.79176808 82.288878 -0.65087618 85.26337348 -7.546875 85.67578125 C-9.13531561 85.70632818 -10.72388118 85.73084463 -12.3125 85.75 C-13.09882813 85.77900391 -13.88515625 85.80800781 -14.6953125 85.83789062 C-21.3935739 85.91021405 -25.36946574 84.21602271 -30.48828125 79.76171875 C-35.13671724 74.27525486 -36.5625 69.73215866 -36.5625 62.4375 C-31.6125 61.9425 -31.6125 61.9425 -26.5625 61.4375 C-26.8925 60.7775 -27.2225 60.1175 -27.5625 59.4375 C-29.68826782 58.97098793 -29.68826782 58.97098793 -32.125 58.8125 C-32.95128906 58.73773438 -33.77757812 58.66296875 -34.62890625 58.5859375 C-35.26699219 58.53695312 -35.90507812 58.48796875 -36.5625 58.4375 C-36.5625 56.7875 -36.5625 55.1375 -36.5625 53.4375 C-31.6125 52.9425 -31.6125 52.9425 -26.5625 52.4375 C-26.8925 51.7775 -27.2225 51.1175 -27.5625 50.4375 C-29.68826782 49.97098793 -29.68826782 49.97098793 -32.125 49.8125 C-32.95128906 49.73773438 -33.77757812 49.66296875 -34.62890625 49.5859375 C-35.26699219 49.53695312 -35.90507812 49.48796875 -36.5625 49.4375 C-36.66218761 44.76023411 -36.73434934 40.08360125 -36.78222656 35.40551758 C-36.80220745 33.81784274 -36.82940203 32.23024021 -36.86425781 30.64282227 C-37.27321033 11.52429228 -37.27321033 11.52429228 -30.84082031 4.57836914 C-23.12062499 -2.79184096 -9.71982355 -4.38050075 0 0 Z M-13.5625 8.4375 C-13.5625 9.7575 -13.5625 11.0775 -13.5625 12.4375 C-12.5725 12.1075 -11.5825 11.7775 -10.5625 11.4375 C-10.8925 10.4475 -11.2225 9.4575 -11.5625 8.4375 C-12.2225 8.4375 -12.8825 8.4375 -13.5625 8.4375 Z M-23.5625 11.4375 C-23.5625 12.4275 -23.5625 13.4175 -23.5625 14.4375 C-22.2425 14.1075 -20.9225 13.7775 -19.5625 13.4375 C-19.8925 12.7775 -20.2225 12.1175 -20.5625 11.4375 C-21.5525 11.4375 -22.5425 11.4375 -23.5625 11.4375 Z M-4.5625 11.4375 C-4.5625 12.4275 -4.5625 13.4175 -4.5625 14.4375 C-3.5725 14.4375 -2.5825 14.4375 -1.5625 14.4375 C-1.5625 13.4475 -1.5625 12.4575 -1.5625 11.4375 C-2.5525 11.4375 -3.5425 11.4375 -4.5625 11.4375 Z M-13.5625 18.4375 C-13.5625 19.4275 -13.5625 20.4175 -13.5625 21.4375 C-12.5725 21.4375 -11.5825 21.4375 -10.5625 21.4375 C-10.5625 20.4475 -10.5625 19.4575 -10.5625 18.4375 C-11.5525 18.4375 -12.5425 18.4375 -13.5625 18.4375 Z M-22.5625 20.4375 C-22.5625 21.7575 -22.5625 23.0775 -22.5625 24.4375 C-21.5725 23.4475 -20.5825 22.4575 -19.5625 21.4375 C-20.5525 21.1075 -21.5425 20.7775 -22.5625 20.4375 Z M-4.5625 20.4375 C-4.2325 21.7575 -3.9025 23.0775 -3.5625 24.4375 C-2.9025 24.1075 -2.2425 23.7775 -1.5625 23.4375 C-1.5625 22.4475 -1.5625 21.4575 -1.5625 20.4375 C-2.5525 20.4375 -3.5425 20.4375 -4.5625 20.4375 Z M-13.5625 27.4375 C-13.5625 28.7575 -13.5625 30.0775 -13.5625 31.4375 C-12.5725 31.1075 -11.5825 30.7775 -10.5625 30.4375 C-10.8925 29.4475 -11.2225 28.4575 -11.5625 27.4375 C-12.2225 27.4375 -12.8825 27.4375 -13.5625 27.4375 Z M-22.5625 29.4375 C-22.8925 30.7575 -23.2225 32.0775 -23.5625 33.4375 C-22.2425 33.1075 -20.9225 32.7775 -19.5625 32.4375 C-20.5525 31.4475 -21.5425 30.4575 -22.5625 29.4375 Z M-3.5625 29.4375 C-3.8925 30.7575 -4.2225 32.0775 -4.5625 33.4375 C-3.5725 33.4375 -2.5825 33.4375 -1.5625 33.4375 C-1.8925 32.1175 -2.2225 30.7975 -2.5625 29.4375 C-2.8925 29.4375 -3.2225 29.4375 -3.5625 29.4375 Z " fill="#5E17EB" transform="translate(262.5625,172.5625)"/>
<path d="M0 0 C1.65 0.33 3.3 0.66 5 1 C5.02578125 1.89460937 5.0515625 2.78921875 5.078125 3.7109375 C5.58758187 14.57163176 7.29304407 23.18274207 14.9609375 31.2421875 C21.62370434 36.98595202 29.25022216 39.41367145 38 39 C46.08233651 37.72575776 53.87086311 34.16122616 58.859375 27.52734375 C62.9242154 20.95585177 64.12013829 15.92243749 64.5625 8.25 C64.62727539 7.20392578 64.62727539 7.20392578 64.69335938 6.13671875 C64.79889596 4.42468078 64.8998991 2.71236439 65 1 C66.65614657 0.61781233 68.32457024 0.28604898 70 0 C71.79118443 1.79118443 71.25738212 4.3248133 71.3125 6.75 C71.20012568 16.99853838 68.74895635 26.20110616 61.98046875 34.06640625 C55.40269409 40.48849394 47.32057148 45 38 45 C38 48.3 38 51.6 38 55 C44.6 55 51.2 55 58 55 C58.495 57.475 58.495 57.475 59 60 C43.49 60 27.98 60 12 60 C11.67 58.68 11.34 57.36 11 56 C12 55 12 55 13.94946289 54.88647461 C14.7821167 54.89171143 15.61477051 54.89694824 16.47265625 54.90234375 C17.37177734 54.90556641 18.27089844 54.90878906 19.19726562 54.91210938 C20.61555664 54.92467773 20.61555664 54.92467773 22.0625 54.9375 C23.01189453 54.94201172 23.96128906 54.94652344 24.93945312 54.95117188 C27.29299531 54.96299872 29.64650532 54.98093479 32 55 C32 51.7 32 48.4 32 45 C30.88625 44.938125 29.7725 44.87625 28.625 44.8125 C21.4598325 43.9216266 14.08672154 40.08672154 9 35 C1.25226953 24.98754832 -1.87891482 14.69256406 -1 2 C-0.67 1.34 -0.34 0.68 0 0 Z " fill="#5E17EB" transform="translate(215,226)"/>
<path d="M0 0 C2.97 0 5.94 0 9 0 C9.50588147 1.91512272 10.00448391 3.83216922 10.5 5.75 C10.7784375 6.81734375 11.056875 7.8846875 11.34375 8.984375 C12 12 12 12 12 16 C12.66 16 13.32 16 14 16 C14.12375 14.845 14.2475 13.69 14.375 12.5 C14.90278885 8.21649625 15.88398037 4.16647328 17 0 C19.97 0 22.94 0 26 0 C26 10.23 26 20.46 26 31 C23.69 31 21.38 31 19 31 C18.67 28.36 18.34 25.72 18 23 C17.34 25.64 16.68 28.28 16 31 C14.02 31 12.04 31 10 31 C9.34 28.36 8.68 25.72 8 23 C7.67 25.64 7.34 28.28 7 31 C4.69 31 2.38 31 0 31 C0 20.77 0 10.54 0 0 Z " fill="#545454" transform="translate(313,299)"/>
<path d="M0 0 C13 0 13 0 18 3 C19.99299023 7.62118921 19.18443826 13.49279771 19.1875 18.4375 C19.19974609 19.47455078 19.21199219 20.51160156 19.22460938 21.58007812 C19.22750977 23.08538086 19.22750977 23.08538086 19.23046875 24.62109375 C19.23457764 25.5330249 19.23868652 26.44495605 19.24291992 27.38452148 C18.9515021 30.52216888 18.2993012 33.7006988 16 36 C10.72 36 5.44 36 0 36 C0 24.12 0 12.24 0 0 Z M7 7 C7 14.59 7 22.18 7 30 C8.65 29.67 10.3 29.34 12 29 C12 22.07 12 15.14 12 8 C10.35 7.67 8.7 7.34 7 7 Z " fill="#545454" transform="translate(114,294)"/>
<path d="M0 0 C1.4540625 0.0309375 1.4540625 0.0309375 2.9375 0.0625 C3.2675 3.6925 3.5975 7.3225 3.9375 11.0625 C5.9175 7.4325 7.8975 3.8025 9.9375 0.0625 C11.9175 0.0625 13.8975 0.0625 15.9375 0.0625 C15.68153122 3.21944824 15.21754246 5.62056999 13.51171875 8.3125 C10.3899478 13.38697292 10.3899478 13.38697292 10.39208984 19.19335938 C11.71960609 23.11325003 13.42421477 26.81592283 15.23046875 30.53515625 C16.9375 34.0625 16.9375 34.0625 16.9375 36.0625 C14.6275 36.0625 12.3175 36.0625 9.9375 36.0625 C8.2875 32.7625 6.6375 29.4625 4.9375 26.0625 C4.6075 26.0625 4.2775 26.0625 3.9375 26.0625 C3.6075 29.3625 3.2775 32.6625 2.9375 36.0625 C0.6275 36.0625 -1.6825 36.0625 -4.0625 36.0625 C-4.08715098 31.09627651 -4.10533649 26.13008834 -4.11743164 21.16381836 C-4.1224719 19.47305684 -4.12930405 17.78229971 -4.13793945 16.09155273 C-4.15001857 13.66649293 -4.15573123 11.24149056 -4.16015625 8.81640625 C-4.16531754 8.05598526 -4.17047882 7.29556427 -4.17579651 6.51210022 C-4.17599238 4.6951743 -4.12447277 2.87836873 -4.0625 1.0625 C-3.0625 0.0625 -3.0625 0.0625 0 0 Z " fill="#545454" transform="translate(271.0625,293.9375)"/>
<path d="M0 0 C3.0625 2 3.0625 2 5 5 C5.39435378 7.80717625 5.24217646 10.14231773 5 13 C2.69 13 0.38 13 -2 13 C-2.33 11.35 -2.66 9.7 -3 8 C-3.99 8 -4.98 8 -6 8 C-6.33 9.98 -6.66 11.96 -7 14 C-6.21753906 14.20496094 -5.43507812 14.40992188 -4.62890625 14.62109375 C-3.61699219 14.89050781 -2.60507813 15.15992188 -1.5625 15.4375 C-0.04849609 15.83775391 -0.04849609 15.83775391 1.49609375 16.24609375 C4 17 4 17 5 18 C5.15251793 20.26723769 5.2219194 22.54031164 5.25 24.8125 C5.27578125 26.05644531 5.3015625 27.30039062 5.328125 28.58203125 C4.9794844 32.21370415 4.79093328 33.66461161 2 36 C-1.03125 36.53125 -1.03125 36.53125 -4.5 36.5 C-5.6446875 36.5103125 -6.789375 36.520625 -7.96875 36.53125 C-11 36 -11 36 -12.89453125 34.234375 C-14.64980669 30.68660979 -14.19581951 27.91639011 -14 24 C-11.69 24 -9.38 24 -7 24 C-6.67 25.65 -6.34 27.3 -6 29 C-5.01 29 -4.02 29 -3 29 C-2.67 27.02 -2.34 25.04 -2 23 C-2.78246094 22.79503906 -3.56492188 22.59007812 -4.37109375 22.37890625 C-5.38300781 22.10949219 -6.39492187 21.84007812 -7.4375 21.5625 C-8.44683594 21.29566406 -9.45617187 21.02882813 -10.49609375 20.75390625 C-13 20 -13 20 -14 19 C-15.10617536 6.92688611 -15.10617536 6.92688611 -12.0625 1.625 C-7.90672189 -0.58010675 -4.60215697 -1.01530407 0 0 Z " fill="#545454" transform="translate(193,294)"/>
<path d="M0 0 C2.578125 -0.061875 5.15625 -0.12375 7.8125 -0.1875 C9.02450073 -0.22846802 9.02450073 -0.22846802 10.26098633 -0.27026367 C13.10186539 -0.30340904 15.43745046 -0.28732961 17.99609375 1.01953125 C19.60330778 4.19018305 19.34991509 7.40919538 19.25 10.875 C19.24484375 11.58269531 19.2396875 12.29039062 19.234375 13.01953125 C19.1779345 16.80809998 18.75794854 20.30095201 18 24 C18.26871451 26.34165499 18.59038404 28.67884289 19 31 C16.69 31 14.38 31 12 31 C11.34 28.03 10.68 25.06 10 22 C9.01 22 8.02 22 7 22 C7 24.97 7 27.94 7 31 C4.69 31 2.38 31 0 31 C0 20.77 0 10.54 0 0 Z M7 6 C7 9.3 7 12.6 7 16 C8.65 15.67 10.3 15.34 12 15 C12 12.36 12 9.72 12 7 C10.35 6.67 8.7 6.34 7 6 Z " fill="#545454" transform="translate(367,299)"/>
<path d="M0 0 C15 0 15 0 18 2 C19.94524807 7.23980117 19.74298934 13.8584425 17.9375 19.0625 C16.61863424 23.19494605 17.30572146 26.77803591 18 31 C16.02 31 14.04 31 12 31 C10.50178941 27.62902617 10 25.79557881 10 22 C9.01 22 8.02 22 7 22 C7 24.97 7 27.94 7 31 C4.69 31 2.38 31 0 31 C0 20.77 0 10.54 0 0 Z M7 6 C7 9.3 7 12.6 7 16 C8.65 15.67 10.3 15.34 12 15 C12 12.36 12 9.72 12 7 C10.35 6.67 8.7 6.34 7 6 Z " fill="#545454" transform="translate(136,299)"/>
<path d="M0 0 C2.31 0 4.62 0 7 0 C7 3.96 7 7.92 7 12 C8.65 12 10.3 12 12 12 C12 8.04 12 4.08 12 0 C14.31 0 16.62 0 19 0 C19 10.23 19 20.46 19 31 C16.69 31 14.38 31 12 31 C12 27.04 12 23.08 12 19 C10.35 19 8.7 19 7 19 C7 22.96 7 26.92 7 31 C4.69 31 2.38 31 0 31 C0 20.77 0 10.54 0 0 Z " fill="#545454" transform="translate(201,299)"/>
<path d="M0 0 C2.31 0 4.62 0 7 0 C7.33 7.92 7.66 15.84 8 24 C8.99 24 9.98 24 11 24 C11.33 16.08 11.66 8.16 12 0 C13.98 0 15.96 0 18 0 C20.51250899 2.51250899 19.18554596 9.3734222 19.1875 12.75 C19.19974609 13.84828125 19.21199219 14.9465625 19.22460938 16.078125 C19.22750977 17.67140625 19.22750977 17.67140625 19.23046875 19.296875 C19.23457764 20.26979492 19.23868652 21.24271484 19.24291992 22.24511719 C18.96092424 25.44314662 18.3472725 28.6527275 16 31 C13.87880076 31.15193163 11.75144685 31.22183514 9.625 31.25 C8.46226562 31.27578125 7.29953125 31.3015625 6.1015625 31.328125 C3 31 3 31 1.32446289 29.88061523 C-0.62424046 27.11363608 -0.33850568 24.93658487 -0.29296875 21.58203125 C-0.28330078 20.32841797 -0.27363281 19.07480469 -0.26367188 17.78320312 C-0.23853516 16.47287109 -0.21339844 15.16253906 -0.1875 13.8125 C-0.17244967 12.47722837 -0.15876187 11.14194063 -0.14648438 9.80664062 C-0.11107694 6.53735424 -0.0616889 3.26887907 0 0 Z " fill="#545454" transform="translate(291,299)"/>
<path d="M0 0 C2.97 0 5.94 0 9 0 C9.99981823 4.09272096 10.99665695 8.18615246 11.99072266 12.28027344 C12.32941897 13.67337717 12.66893332 15.06628227 13.00927734 16.45898438 C13.49791453 18.45912027 13.98361983 20.4599485 14.46875 22.4609375 C14.90864258 24.26763916 14.90864258 24.26763916 15.35742188 26.11083984 C16 29 16 29 16 31 C13.69 31 11.38 31 9 31 C8.67 29.02 8.34 27.04 8 25 C5.36 25 2.72 25 0 25 C-0.33 26.98 -0.66 28.96 -1 31 C-2.98 31 -4.96 31 -7 31 C-6.40281353 24.31558321 -5.18391933 18.05280622 -3.5 11.5625 C-3.27441406 10.66595703 -3.04882812 9.76941406 -2.81640625 8.84570312 C-1.14826949 2.29653898 -1.14826949 2.29653898 0 0 Z M4 12 C3.34 14.31 2.68 16.62 2 19 C3.32 19 4.64 19 6 19 C5.67 16.69 5.34 14.38 5 12 C4.67 12 4.34 12 4 12 Z " fill="#545454" transform="translate(349,299)"/>
<path d="M0 0 C1.98 0 3.96 0 6 0 C7.77362508 4.94081272 8.91266548 9.87399439 10 15 C11.32 10.05 12.64 5.1 14 0 C16.31 0 18.62 0 21 0 C19.38722005 10.49510537 16.64154478 20.72816444 14 31 C11.69 31 9.38 31 7 31 C4.87751826 25.16317521 3.25654727 19.28387014 1.8125 13.25 C1.63364258 12.51724854 1.45478516 11.78449707 1.27050781 11.02954102 C0.39447263 7.2893148 -0.21952555 3.84548202 0 0 Z " fill="#545454" transform="translate(233,299)"/>
<path d="M0 0 C2.31 0 4.62 0 7 0 C7 10.23 7 20.46 7 31 C4.69 31 2.38 31 0 31 C0 20.77 0 10.54 0 0 Z " fill="#545454" transform="translate(223,299)"/>
<path d="M0 0 C1.9375 0.3125 1.9375 0.3125 4 1 C5.2077558 4.62326739 4.54311128 5.64146369 3 9 C4.65 9.33 6.3 9.66 8 10 C7.53328373 15.41390868 6.75702189 19.20517932 4 24 C2.68 23.67 1.36 23.34 0 23 C0 20.69 0 18.38 0 16 C-1.32 15.34 -2.64 14.68 -4 14 C-3.46148032 8.72250715 -2.22656164 4.74354436 0 0 Z " fill="#5E17EB" transform="translate(248,136)"/>
<path d="M0 0 C0.33 1.32 0.66 2.64 1 4 C-0.65 5.32 -2.3 6.64 -4 8 C-3.67 9.65 -3.34 11.3 -3 13 C-4.4096347 13.70180531 -5.82807641 14.38593958 -7.25 15.0625 C-8.03890625 15.44535156 -8.8278125 15.82820312 -9.640625 16.22265625 C-12.25993522 17.08564091 -13.44855176 16.93045933 -16 16 C-15.6875 13.625 -15.6875 13.625 -15 11 C-14.01 10.34 -13.02 9.68 -12 9 C-12.33 7.35 -12.66 5.7 -13 4 C-4.738041 -0.59225513 -4.738041 -0.59225513 0 0 Z " fill="#5E17EB" transform="translate(299,182)"/>
<path d="M0 0 C1.62566606 0.47690204 3.25051311 0.95659666 4.875 1.4375 C5.77992188 1.70433594 6.68484375 1.97117188 7.6171875 2.24609375 C10 3 10 3 12 4 C12.125 8.75 12.125 8.75 11 11 C12.65 11.99 14.3 12.98 16 14 C15.34 15.32 14.68 16.64 14 18 C12.37007308 17.60304363 10.74607765 17.18167507 9.125 16.75 C8.22007812 16.51796875 7.31515625 16.2859375 6.3828125 16.046875 C4 15 4 15 2.625 13.03125 C2 11 2 11 2.875 8.75 C3.24625 8.1725 3.6175 7.595 4 7 C2.7934375 6.566875 2.7934375 6.566875 1.5625 6.125 C-1 5 -1 5 -2 3 C-1.34 2.01 -0.68 1.02 0 0 Z " fill="#5E17EB" transform="translate(202,181)"/>
<path d="M0 0 C0.58394531 0.23074219 1.16789062 0.46148437 1.76953125 0.69921875 C1.61549012 5.782576 -1.25115307 8.05676593 -4.734375 11.34375 C-5.22808594 11.79105469 -5.72179687 12.23835937 -6.23046875 12.69921875 C-7.55046875 12.03921875 -8.87046875 11.37921875 -10.23046875 10.69921875 C-9.64651669 7.18772034 -8.3976723 5.40890117 -5.91796875 2.88671875 C-5.32371094 2.26152344 -4.72945313 1.63632813 -4.1171875 0.9921875 C-2.23046875 -0.30078125 -2.23046875 -0.30078125 0 0 Z " fill="#5E17EB" transform="translate(281.23046875,157.30078125)"/>
<path d="M0 0 C4.62258782 0.84412473 7.26252273 3.26057026 10 7 C10.375 9.875 10.375 9.875 10 12 C7.875 12.4375 7.875 12.4375 5 12 C2.51057113 9.97876647 0.60621764 7.77646193 -1 5 C-0.875 2.0625 -0.875 2.0625 0 0 Z " fill="#5E17EB" transform="translate(218,157)"/>
<path d="M0 0 C0.99 0 1.98 0 3 0 C3.66 1.65 4.32 3.3 5 5 C5.45375 4.175 5.9075 3.35 6.375 2.5 C6.91125 1.675 7.4475 0.85 8 0 C8.66 0 9.32 0 10 0 C10 3.3 10 6.6 10 10 C8 10 6 10 4 10 C3.67 9.34 3.34 8.68 3 8 C2.67 8.66 2.34 9.32 2 10 C1.34 10 0.68 10 0 10 C0 6.7 0 3.4 0 0 Z " fill="#5E17EB" transform="translate(382,346)"/>
<path d="M0 0 C1.67542976 0.28604898 3.34385343 0.61781233 5 1 C5 2.32 5 3.64 5 5 C5.99 5.33 6.98 5.66 8 6 C8 7.32 8 8.64 8 10 C1.9453125 10.9765625 1.9453125 10.9765625 0 11 C-2 9 -2 9 -2.01171875 7.08984375 C-1.11111111 1.11111111 -1.11111111 1.11111111 0 0 Z M1 6 C1 6.99 1 7.98 1 9 C1.66 8.34 2.32 7.68 3 7 C2.34 6.67 1.68 6.34 1 6 Z " fill="#5E17EB" transform="translate(218,346)"/>
<path d="M0 0 C1.953125 0.6796875 1.953125 0.6796875 4 2 C4.609375 4.3828125 4.609375 4.3828125 4.75 7.125 C4.80671875 8.03507813 4.8634375 8.94515625 4.921875 9.8828125 C4.94765625 10.58148438 4.9734375 11.28015625 5 12 C3.125 12.625 3.125 12.625 1 13 C-1.35302007 10.64697993 -1.39392208 9.72564705 -1.75 6.5 C-1.84796875 5.7059375 -1.9459375 4.911875 -2.046875 4.09375 C-2 2 -2 2 0 0 Z " fill="#5E17EB" transform="translate(232,152)"/>
<path d="M0 0 C0.99 0.33 1.98 0.66 3 1 C4.15957207 4.47871621 3.77456651 5.34219645 2.5625 8.6875 C2.27503906 9.49574219 1.98757813 10.30398437 1.69140625 11.13671875 C1.46324219 11.75160156 1.23507812 12.36648437 1 13 C-0.32 12.67 -1.64 12.34 -3 12 C-2.88648483 10.18674449 -2.75887039 8.37436643 -2.625 6.5625 C-2.55539062 5.55316406 -2.48578125 4.54382813 -2.4140625 3.50390625 C-2.27742188 2.67761719 -2.14078125 1.85132813 -2 1 C-1.34 0.67 -0.68 0.34 0 0 Z " fill="#5E17EB" transform="translate(266,152)"/>
<path d="M0 0 C0.99 0 1.98 0 3 0 C3.33 0.66 3.66 1.32 4 2 C4.33 1.34 4.66 0.68 5 0 C5.66 0 6.32 0 7 0 C7.33 0.66 7.66 1.32 8 2 C8.33 1.34 8.66 0.68 9 0 C9.66 0 10.32 0 11 0 C10.67 2.64 10.34 5.28 10 8 C9.01 8 8.02 8 7 8 C7 7.34 7 6.68 7 6 C6.34 6 5.68 6 5 6 C5 6.66 5 7.32 5 8 C4.01 8 3.02 8 2 8 C1.34 5.36 0.68 2.72 0 0 Z " fill="#5E17EB" transform="translate(344,348)"/>
<path d="M0 0 C3.3 0.33 6.6 0.66 10 1 C10.33 2.65 10.66 4.3 11 6 C9.5629191 6.05422947 8.12524538 6.09289723 6.6875 6.125 C5.88699219 6.14820313 5.08648437 6.17140625 4.26171875 6.1953125 C2 6 2 6 -1 4 C-0.67 2.68 -0.34 1.36 0 0 Z " fill="#5E17EB" transform="translate(211,170)"/>
<path d="M0 0 C-0.375 2.4375 -0.375 2.4375 -1 5 C-4.21451269 6.60725635 -7.43612536 6.05748185 -11 6 C-11 4.35 -11 2.7 -11 1 C-7.32589215 -0.17571451 -3.83070817 -0.07366746 0 0 Z " fill="#5E17EB" transform="translate(289,170)"/>
<path d="M0 0 C1.98 0 3.96 0 6 0 C8.42857143 6.28571429 8.42857143 6.28571429 7 10 C4.69 10 2.38 10 0 10 C0 6.7 0 3.4 0 0 Z M2 2 C2 2.66 2 3.32 2 4 C2.99 4 3.98 4 5 4 C5 3.34 5 2.68 5 2 C4.01 2 3.02 2 2 2 Z M2 6 C2 6.99 2 7.98 2 9 C2.99 8.67 3.98 8.34 5 8 C5 7.34 5 6.68 5 6 C4.01 6 3.02 6 2 6 Z " fill="#5E17EB" transform="translate(235,346)"/>
<path d="M0 0 C1.670625 0.061875 1.670625 0.061875 3.375 0.125 C3.045 0.785 2.715 1.445 2.375 2.125 C0.725 2.125 -0.925 2.125 -2.625 2.125 C-2.625 3.775 -2.625 5.425 -2.625 7.125 C-1.635 7.455 -0.645 7.785 0.375 8.125 C0.705 7.465 1.035 6.805 1.375 6.125 C0.715 5.795 0.055 5.465 -0.625 5.125 C0.695 5.125 2.015 5.125 3.375 5.125 C3.375 6.775 3.375 8.425 3.375 10.125 C0.5625 10.75 0.5625 10.75 -2.625 11.125 C-3.615 10.465 -4.605 9.805 -5.625 9.125 C-5.9375 5.625 -5.9375 5.625 -5.625 2.125 C-3.625 0.125 -3.625 0.125 0 0 Z " fill="#5E17EB" transform="translate(320.625,345.875)"/>
<path d="M0 0 C1.98 0 3.96 0 6 0 C8 3 8 3 7.625 5.6875 C7.41875 6.450625 7.2125 7.21375 7 8 C6.360625 8.103125 5.72125 8.20625 5.0625 8.3125 C4.0415625 8.6528125 4.0415625 8.6528125 3 9 C2.67 9.99 2.34 10.98 2 12 C1.34 12 0.68 12 0 12 C0 8.04 0 4.08 0 0 Z M3 2 C2.67 2.99 2.34 3.98 2 5 C2.33 5.66 2.66 6.32 3 7 C3.66 7 4.32 7 5 7 C5.33 6.01 5.66 5.02 6 4 C5.67 3.34 5.34 2.68 5 2 C4.34 2 3.68 2 3 2 Z " fill="#5E17EB" transform="translate(153,348)"/>
<path d="M0 0 C1.98 0 3.96 0 6 0 C6 0.66 6 1.32 6 2 C4.68 2 3.36 2 2 2 C2 2.66 2 3.32 2 4 C3.32 4.33 4.64 4.66 6 5 C6 6.65 6 8.3 6 10 C4.02 10.33 2.04 10.66 0 11 C-0.33 10.01 -0.66 9.02 -1 8 C0.32 7.67 1.64 7.34 3 7 C1.68 6.01 0.36 5.02 -1 4 C-0.67 2.68 -0.34 1.36 0 0 Z " fill="#5E17EB" transform="translate(144,346)"/>
<path d="M0 0 C1.65 0.33 3.3 0.66 5 1 C5 2.32 5 3.64 5 5 C4.01 5.495 4.01 5.495 3 6 C3.66 6 4.32 6 5 6 C4.67 6.99 4.34 7.98 4 9 C2.35 8.67 0.7 8.34 -1 8 C-1.625 5.6875 -1.625 5.6875 -2 3 C-1.34 2.01 -0.68 1.02 0 0 Z " fill="#5E17EB" transform="translate(283,348)"/>
<path d="M0 0 C2.125 0.375 2.125 0.375 4 1 C4.33 2.32 4.66 3.64 5 5 C4.01 5.495 4.01 5.495 3 6 C3.66 6 4.32 6 5 6 C4.67 6.99 4.34 7.98 4 9 C-0.875 8.125 -0.875 8.125 -2 7 C-2.1875 4.5625 -2.1875 4.5625 -2 2 C-1.34 1.34 -0.68 0.68 0 0 Z " fill="#5E17EB" transform="translate(398,348)"/>
<path d="M0 0 C1.65 0.33 3.3 0.66 5 1 C5 3.31 5 5.62 5 8 C3.35 8.33 1.7 8.66 0 9 C-1.125 7.3125 -1.125 7.3125 -2 5 C-1.125 2.25 -1.125 2.25 0 0 Z M1 5 C1.33 5.66 1.66 6.32 2 7 C2.33 6.34 2.66 5.68 3 5 C2.34 5 1.68 5 1 5 Z " fill="#5E17EB" transform="translate(175,348)"/>
<path d="M0 0 C1.67542976 0.28604898 3.34385343 0.61781233 5 1 C5.33 2.32 5.66 3.64 6 5 C5.01 5.33 4.02 5.66 3 6 C3.66 6 4.32 6 5 6 C4.67 6.99 4.34 7.98 4 9 C2.35 8.67 0.7 8.34 -1 8 C-1.04241723 5.66705225 -1.04092937 3.33297433 -1 1 C-0.67 0.67 -0.34 0.34 0 0 Z " fill="#5E17EB" transform="translate(165,348)"/>
<path d="M0 0 C0.66 0 1.32 0 2 0 C2.33 0.99 2.66 1.98 3 3 C5.01508358 3.73323796 5.01508358 3.73323796 7 4 C7 6.31 7 8.62 7 11 C6.34 11 5.68 11 5 11 C5 9.02 5 7.04 5 5 C4.34 5 3.68 5 3 5 C2.67 6.98 2.34 8.96 2 11 C1.34 11 0.68 11 0 11 C0 7.37 0 3.74 0 0 Z " fill="#5E17EB" transform="translate(365,345)"/>
<path d="M0 0 C0.66 0 1.32 0 2 0 C2.33 1.32 2.66 2.64 3 4 C3.99 3.67 4.98 3.34 6 3 C5.814375 3.763125 5.62875 4.52625 5.4375 5.3125 C4.77180827 8.08967375 4.77180827 8.08967375 6 11 C4.02 11 2.04 11 0 11 C0 7.37 0 3.74 0 0 Z " fill="#5E17EB" transform="translate(184,345)"/>
<path d="M0 0 C2.31 0 4.62 0 7 0 C7 1.98 7 3.96 7 6 C4.69 6 2.38 6 0 6 C0 4.02 0 2.04 0 0 Z " fill="#545454" transform="translate(158,324)"/>
<path d="M0 0 C2.125 0.375 2.125 0.375 4 1 C4.33 2.32 4.66 3.64 5 5 C4.01 5.495 4.01 5.495 3 6 C3 6.99 3 7.98 3 9 C0.525 8.01 0.525 8.01 -2 7 C-2.125 4.625 -2.125 4.625 -2 2 C-1.34 1.34 -0.68 0.68 0 0 Z " fill="#5E17EB" transform="translate(195,348)"/>
<path d="M0 0 C3.53571429 0.53571429 3.53571429 0.53571429 5 2 C5.1875 4.4375 5.1875 4.4375 5 7 C4.34 7.66 3.68 8.32 3 9 C-0.53571429 8.46428571 -0.53571429 8.46428571 -2 7 C-2.1875 4.5625 -2.1875 4.5625 -2 2 C-1.34 1.34 -0.68 0.68 0 0 Z M1 2 C0.67 3.32 0.34 4.64 0 6 C0.99 6 1.98 6 3 6 C2.67 4.68 2.34 3.36 2 2 C1.67 2 1.34 2 1 2 Z " fill="#5E17EB" transform="translate(426,348)"/>
<path d="M0 0 C3.53571429 0.53571429 3.53571429 0.53571429 5 2 C5.1875 4.4375 5.1875 4.4375 5 7 C4.34 7.66 3.68 8.32 3 9 C-0.53571429 8.46428571 -0.53571429 8.46428571 -2 7 C-2.1875 4.5625 -2.1875 4.5625 -2 2 C-1.34 1.34 -0.68 0.68 0 0 Z M1 2 C0.67 3.32 0.34 4.64 0 6 C0.99 6 1.98 6 3 6 C2.67 4.68 2.34 3.36 2 2 C1.67 2 1.34 2 1 2 Z " fill="#5E17EB" transform="translate(337,348)"/>
<path d="M0 0 C0 2.31 0 4.62 0 7 C-1.65 7.33 -3.3 7.66 -5 8 C-5.59732819 5.23735711 -6 2.83967231 -6 0 C-3.50907189 -1.24546405 -2.58919267 -0.7767578 0 0 Z M-4 4 C-3.67 4.66 -3.34 5.32 -3 6 C-2.67 5.34 -2.34 4.68 -2 4 C-2.66 4 -3.32 4 -4 4 Z " fill="#5E17EB" transform="translate(128,349)"/>
<path d="M0 0 C0 2.31 0 4.62 0 7 C-1.65 7.33 -3.3 7.66 -5 8 C-5.59732819 5.23735711 -6 2.83967231 -6 0 C-3.50907189 -1.24546405 -2.58919267 -0.7767578 0 0 Z M-4 4 C-3.67 4.66 -3.34 5.32 -3 6 C-2.67 5.34 -2.34 4.68 -2 4 C-2.66 4 -3.32 4 -4 4 Z " fill="#5E17EB" transform="translate(93,349)"/>
<path d="M0 0 C0.66 0 1.32 0 2 0 C2.33 1.98 2.66 3.96 3 6 C3.33 6 3.66 6 4 6 C4.33 4.02 4.66 2.04 5 0 C5.66 0 6.32 0 7 0 C7 2.64 7 5.28 7 8 C2.25 9.125 2.25 9.125 0 8 C0 5.36 0 2.72 0 0 Z " fill="#5E17EB" transform="translate(246,348)"/>
<path d="M0 0 C1.99954746 -0.04254356 4.00041636 -0.04080783 6 0 C7 1 7 1 7.0625 4.5625 C7.041875 5.696875 7.02125 6.83125 7 8 C6.34 8 5.68 8 5 8 C5 6.02 5 4.04 5 2 C4.34 2 3.68 2 3 2 C2.67 3.98 2.34 5.96 2 8 C1.34 8 0.68 8 0 8 C0 5.36 0 2.72 0 0 Z " fill="#5E17EB" transform="translate(406,348)"/>
<path d="M0 0 C1.65 0.33 3.3 0.66 5 1 C5 3.33333333 5 5.66666667 5 8 C3.35 8.33 1.7 8.66 0 9 C-0.33 8.01 -0.66 7.02 -1 6 C-0.01 6 0.98 6 2 6 C1.01 5.34 0.02 4.68 -1 4 C-0.67 2.68 -0.34 1.36 0 0 Z " fill="#5E17EB" transform="translate(301,348)"/>
<path d="M0 0 C1.99954746 -0.04254356 4.00041636 -0.04080783 6 0 C7 1 7 1 7.0625 4.5625 C7.041875 5.696875 7.02125 6.83125 7 8 C6.34 8 5.68 8 5 8 C5 6.02 5 4.04 5 2 C4.01 2.495 4.01 2.495 3 3 C2.34444881 5.52733235 2.34444881 5.52733235 2 8 C1.34 8 0.68 8 0 8 C0 5.36 0 2.72 0 0 Z " fill="#5E17EB" transform="translate(271,348)"/>
<path d="M0 0 C1.65 0.33 3.3 0.66 5 1 C5 3.33333333 5 5.66666667 5 8 C3.35 8.33 1.7 8.66 0 9 C-0.33 8.01 -0.66 7.02 -1 6 C-0.01 6 0.98 6 2 6 C1.01 5.34 0.02 4.68 -1 4 C-0.67 2.68 -0.34 1.36 0 0 Z " fill="#5E17EB" transform="translate(257,348)"/>
<path d="M0 0 C2.31 0.33 4.62 0.66 7 1 C7 3.31 7 5.62 7 8 C6.34 8 5.68 8 5 8 C4.67 6.35 4.34 4.7 4 3 C3.67 3 3.34 3 3 3 C2.67 4.65 2.34 6.3 2 8 C1.34 8 0.68 8 0 8 C0 5.36 0 2.72 0 0 Z " fill="#5E17EB" transform="translate(97,348)"/>
<path d="M0 0 C1.99954746 -0.04254356 4.00041636 -0.04080783 6 0 C7 1 7 1 7.0625 4.5625 C7.041875 5.696875 7.02125 6.83125 7 8 C6.34 8 5.68 8 5 8 C5 6.02 5 4.04 5 2 C4.34 2 3.68 2 3 2 C2.67 3.98 2.34 5.96 2 8 C1.34 8 0.68 8 0 8 C0 5.36 0 2.72 0 0 Z " fill="#5E17EB" transform="translate(76,348)"/>
<path d="M0 0 C-0.33 0.66 -0.66 1.32 -1 2 C-0.67 2.33 -0.34 2.66 0 3 C0 4.32 0 5.64 0 7 C-1.65 7.33 -3.3 7.66 -5 8 C-5.33 7.01 -5.66 6.02 -6 5 C-5.01 5 -4.02 5 -3 5 C-3.99 4.34 -4.98 3.68 -6 3 C-6 2.01 -6 1.02 -6 0 C-3.50907189 -1.24546405 -2.58919267 -0.7767578 0 0 Z " fill="#5E17EB" transform="translate(297,349)"/>
<path d="M0 0 C1.98 0 3.96 0 6 0 C6 0.66 6 1.32 6 2 C4.68 2 3.36 2 2 2 C2 2.66 2 3.32 2 4 C3.32 4 4.64 4 6 4 C6 4.66 6 5.32 6 6 C4.68 6 3.36 6 2 6 C2 7.32 2 8.64 2 10 C1.34 10 0.68 10 0 10 C0 6.7 0 3.4 0 0 Z " fill="#5E17EB" transform="translate(62,346)"/>
<path d="M0 0 C2.125 0.375 2.125 0.375 4 1 C4 1.66 4 2.32 4 3 C3.34 3 2.68 3 2 3 C2 4.65 2 6.3 2 8 C2.66 8.33 3.32 8.66 4 9 C2.68 9 1.36 9 0 9 C-0.66 6.69 -1.32 4.38 -2 2 C-1.34 1.34 -0.68 0.68 0 0 Z " fill="#5E17EB" transform="translate(359,347)"/>
<path d="M0 0 C1.32 0 2.64 0 4 0 C4 0.66 4 1.32 4 2 C3.01 2.33 2.02 2.66 1 3 C1 3.99 1 4.98 1 6 C1.99 6 2.98 6 4 6 C3.67 6.99 3.34 7.98 3 9 C0.525 8.01 0.525 8.01 -2 7 C-2.125 4.625 -2.125 4.625 -2 2 C-1.34 1.34 -0.68 0.68 0 0 Z " fill="#5E17EB" transform="translate(109,348)"/>
<path d="M0 0 C1.98 0.495 1.98 0.495 4 1 C4 1.66 4 2.32 4 3 C3.34 3 2.68 3 2 3 C2 4.65 2 6.3 2 8 C2.66 8 3.32 8 4 8 C4 8.66 4 9.32 4 10 C2.68 9.67 1.36 9.34 0 9 C-1.125 2.25 -1.125 2.25 0 0 Z " fill="#5E17EB" transform="translate(417,347)"/>
<path d="M0 0 C1.65 0 3.3 0 5 0 C4.690625 0.5775 4.38125 1.155 4.0625 1.75 C3.07416636 3.84294184 2.4831387 5.74535275 2 8 C1.34 8 0.68 8 0 8 C0 5.36 0 2.72 0 0 Z " fill="#5E17EB" transform="translate(434,348)"/>
<path d="M0 0 C1.65 0 3.3 0 5 0 C5 0.66 5 1.32 5 2 C4.01 2.495 4.01 2.495 3 3 C2.34444881 5.52733235 2.34444881 5.52733235 2 8 C1.34 8 0.68 8 0 8 C0 5.36 0 2.72 0 0 Z " fill="#5E17EB" transform="translate(203,348)"/>
<path d="M0 0 C1.65 0 3.3 0 5 0 C5 0.66 5 1.32 5 2 C4.01 2.495 4.01 2.495 3 3 C2.34444881 5.52733235 2.34444881 5.52733235 2 8 C1.34 8 0.68 8 0 8 C0 5.36 0 2.72 0 0 Z " fill="#5E17EB" transform="translate(327,348)"/>
<path d="M0 0 C0.99 0 1.98 0 3 0 C2.67 3.3 2.34 6.6 2 10 C1.34 10 0.68 10 0 10 C0 6.7 0 3.4 0 0 Z " fill="#5E17EB" transform="translate(116,346)"/>
<path d="M0 0 C0.66 0 1.32 0 2 0 C2 3.63 2 7.26 2 11 C1.34 11 0.68 11 0 11 C0 7.37 0 3.74 0 0 Z " fill="#5E17EB" transform="translate(132,345)"/>
<path d="M0 0 C0.66 0 1.32 0 2 0 C2 3.3 2 6.6 2 10 C1.34 10 0.68 10 0 10 C0 6.7 0 3.4 0 0 Z " fill="#5E17EB" transform="translate(265,346)"/>
<path d="M0 0 C0.66 0 1.32 0 2 0 C2 3.3 2 6.6 2 10 C1.34 10 0.68 10 0 10 C0 6.7 0 3.4 0 0 Z " fill="#5E17EB" transform="translate(71,346)"/>
</svg>
